HIERARCHY
ROOT hip
{
  OFFSET 0 0 0
  CHANNELS 6 Xposition Yposition Zposition Zrotation Yrotation Xrotation
  JOINT abdomen
  {
    OFFSET 0 20.6881 -0.73152
    CHANNELS 3 Zrotation Xrotation Yrotation
    JOINT chest
    {
      OFFSET 0 11.7043 -0.48768
      CHANNELS 3 Zrotation Xrotation Yrotation
      JOINT neck
      {
        OFFSET 0 22.1894 -2.19456
        CHANNELS 3 Zrotation Xrotation Yrotation
        JOINT head
        {
          OFFSET -0.24384 7.07133 1.2192
          CHANNELS 3 Zrotation Xrotation Yrotation
          JOINT leftEye
          {
            OFFSET 4.14528 8.04674 8.04672
            CHANNELS 3 Zrotation Xrotation Yrotation
            End Site
            {
              OFFSET 1 0 0
            }
          }
          JOINT rightEye
          {
            OFFSET -3.6576 8.04674 8.04672
            CHANNELS 3 Zrotation Xrotation Yrotation
            End Site
            {
              OFFSET 1 0 0
            }
          }
        }
      }
      JOINT rCollar
      {
        OFFSET -2.68224 19.2634 -4.8768
        CHANNELS 3 Zrotation Xrotation Yrotation
        JOINT rShldr
        {
          OFFSET -8.77824 -1.95073 1.46304
          CHANNELS 3 Zrotation Xrotation Yrotation
          JOINT rForeArm
          {
            OFFSET -28.1742 -1.7115 0.48768
            CHANNELS 3 Zrotation Xrotation Yrotation
            JOINT rHand
            {
              OFFSET -22.5879 0.773209 7.07136
              CHANNELS 3 Zrotation Xrotation Yrotation
              JOINT rThumb1
              {
                OFFSET -1.2192 -0.487915 3.41376
                CHANNELS 3 Zrotation Xrotation Yrotation
                JOINT rThumb2
                {
                  OFFSET -3.37035 -0.52449 3.41376
                  CHANNELS 3 Zrotation Xrotation Yrotation
                  End Site
                  {
                    OFFSET -1.78271 -1.18214 1.43049
                  }
                }
              }
              JOINT rIndex1
              {
                OFFSET -7.75947 0.938293 5.60832
                CHANNELS 3 Zrotation Xrotation Yrotation
                JOINT rIndex2
                {
                  OFFSET -2.54057 -0.884171 1.56538
                  CHANNELS 3 Zrotation Xrotation Yrotation
                  End Site
                  {
                    OFFSET -1.62519 -0.234802 1.16502
                  }
                }
              }
              JOINT rMid1
              {
                OFFSET -8.24714 1.18213 3.41376
                CHANNELS 3 Zrotation Xrotation Yrotation
                JOINT rMid2
                {
                  OFFSET -3.10165 -0.590103 1.0647
                  CHANNELS 3 Zrotation Xrotation Yrotation
                  End Site
                  {
                    OFFSET -2.48547 -0.328903 0.83742
                  }
                }
              }
              JOINT rRing1
              {
                OFFSET -8.82822 0.546677 1.51678
                CHANNELS 3 Zrotation Xrotation Yrotation
                JOINT rRing2
                {
                  OFFSET -2.60934 -0.819778 -0.0198488
                  CHANNELS 3 Zrotation Xrotation Yrotation
                  End Site
                  {
                    OFFSET -2.33842 -0.294052 0.168128
                  }
                }
              }
              JOINT rPinky1
              {
                OFFSET -8.27202 -0.0477905 -0.4584
                CHANNELS 3 Zrotation Xrotation Yrotation
                JOINT rPinky2
                {
                  OFFSET -1.82734 -0.647385 -0.700984
                  CHANNELS 3 Zrotation Xrotation Yrotation
                  End Site
                  {
                    OFFSET -1.69225 -0.51767 -0.607171
                  }
                }
              }
            }
          }
        }
      }
      JOINT lCollar
      {
        OFFSET 2.68224 19.2634 -4.8768
        CHANNELS 3 Zrotation Xrotation Yrotation
        JOINT lShldr
        {
          OFFSET 8.77824 -1.95073 1.46304
          CHANNELS 3 Zrotation Xrotation Yrotation
          JOINT lForeArm
          {
            OFFSET 28.1742 -1.7115 0.48768
            CHANNELS 3 Zrotation Xrotation Yrotation
            JOINT lHand
            {
              OFFSET 22.5879 0.773209 7.07136
              CHANNELS 3 Zrotation Xrotation Yrotation
              JOINT lThumb1
              {
                OFFSET 1.2192 -0.487915 3.41376
                CHANNELS 3 Zrotation Xrotation Yrotation
                JOINT lThumb2
                {
                  OFFSET 3.37035 -0.52449 3.41376
                  CHANNELS 3 Zrotation Xrotation Yrotation
                  End Site
                  {
                    OFFSET 1.78271 -1.18214 1.43049
                  }
                }
              }
              JOINT lIndex1
              {
                OFFSET 7.75947 0.938293 5.60832
                CHANNELS 3 Zrotation Xrotation Yrotation
                JOINT lIndex2
                {
                  OFFSET 2.54057 -0.884171 1.56538
                  CHANNELS 3 Zrotation Xrotation Yrotation
                  End Site
                  {
                    OFFSET 1.62519 -0.234802 1.16502
                  }
                }
              }
              JOINT lMid1
              {
                OFFSET 8.24714 1.18213 3.41376
                CHANNELS 3 Zrotation Xrotation Yrotation
                JOINT lMid2
                {
                  OFFSET 3.10165 -0.590103 1.0647
                  CHANNELS 3 Zrotation Xrotation Yrotation
                  End Site
                  {
                    OFFSET 2.48547 -0.328903 0.83742
                  }
                }
              }
              JOINT lRing1
              {
                OFFSET 8.82822 0.546677 1.51678
                CHANNELS 3 Zrotation Xrotation Yrotation
                JOINT lRing2
                {
                  OFFSET 2.60934 -0.819778 -0.0198488
                  CHANNELS 3 Zrotation Xrotation Yrotation
                  End Site
                  {
                    OFFSET 2.33842 -0.294052 0.168128
                  }
                }
              }
              JOINT lPinky1
              {
                OFFSET 8.27202 -0.0477905 -0.4584
                CHANNELS 3 Zrotation Xrotation Yrotation
                JOINT lPinky2
                {
                  OFFSET 1.82734 -0.647385 -0.700984
                  CHANNELS 3 Zrotation Xrotation Yrotation
                  End Site
                  {
                    OFFSET 1.69225 -0.51767 -0.607171
                  }
                }
              }
            }
          }
        }
      }
    }
  }
  JOINT rButtock
  {
    OFFSET -8.77824 4.35084 1.2192
    CHANNELS 3 Zrotation Xrotation Yrotation
    JOINT rThigh
    {
      OFFSET 0 -1.70687 -2.19456
      CHANNELS 3 Zrotation Xrotation Yrotation
      JOINT rShin
      {
        OFFSET 0 -36.8199 0.73152
        CHANNELS 3 Zrotation Xrotation Yrotation
        JOINT rFoot
        {
          OFFSET 0.73152 -45.1104 -5.12064
          CHANNELS 3 Zrotation Xrotation Yrotation
          End Site
          {
            OFFSET -1.1221 -3.69964 12.103
          }
        }
      }
    }
  }
  JOINT lButtock
  {
    OFFSET 8.77824 4.35084 1.2192
    CHANNELS 3 Zrotation Xrotation Yrotation
    JOINT lThigh
    {
      OFFSET 0 -1.70687 -2.19456
      CHANNELS 3 Zrotation Xrotation Yrotation
      JOINT lShin
      {
        OFFSET 0 -36.8199 0.73152
        CHANNELS 3 Zrotation Xrotation Yrotation
        JOINT lFoot
        {
          OFFSET -0.73152 -45.1104 -5.12064
          CHANNELS 3 Zrotation Xrotation Yrotation
          End Site
          {
            OFFSET 1.1221 -3.69964 12.103
          }
        }
      }
    }
  }
}
MOTION
Frames:	7
Frame Time:	0.00833333
0.0 0.0 0.0 0.0 0.0 0.0 0.0 0.0 0.0 0.0 0.0 0.0 0.0 0.0 0.0 0.0 0.0 0.0 0.0 0.0 0.0 0.0 0.0 0.0 0.0 0.0 0.0 0.0 0.0 0.0 0.0 0.0 0.0 0.0 0.0 0.0 0.0 0.0 0.0 0.0 0.0 0.0 0.0 0.0 0.0 0.0 0.0 0.0 0.0 0.0 0.0 0.0 0.0 0.0 0.0 0.0 0.0 0.0 0.0 0.0 0.0 0.0 0.0 0.0 0.0 0.0 0.0 0.0 0.0 0.0 0.0 0.0 0.0 0.0 0.0 0.0 0.0 0.0 0.0 0.0 0.0 0.0 0.0 0.0 0.0 0.0 0.0 0.0 0.0 0.0 0.0 0.0 0.0 0.0 0.0 0.0 0.0 0.0 0.0 0.0 0.0 0.0 0.0 0.0 0.0 0.0 0.0 0.0 0.0 0.0 0.0 0.0 0.0 0.0 0.0 0.0 0.0 0.0 0.0 0.0 0.0 0.0 0.0 0.0 0.0 0.0 0.0 0.0 0.0 0.0 0.0 0.0
-168.417 61.29599999999999 131.376 0.0 0.0 0.0 -0.0 -0.0 -0.0 -0.0 0.0 -0.0 10.949062 5.266948 73.893887 -8.107979 9.060592 -73.755533 0.0 -0.0 -0.0 0.0 -0.0 -0.0 4.239307 -44.742767 -8.647656 -138.696975 69.975108 137.014693 4.066431 -69.249953 0.560664 -2.859108 9.139045 -0.084877 -78.030619 38.689342 42.41267 -150.780244 -33.360425 83.031598 -138.493513 4.896353 114.8648 -3.026991 38.915906 -1.524171 -8.41658 20.880424 5.645309 -169.701565 -16.7392 145.405725 -70.379629 -72.130165 -87.279981 17.87228 -20.617292 3.814632 -145.173549 12.06758 -141.82295 -7.302893 -23.732672 -12.253103 -3.268835 -26.755826 5.241683 176.286935 -4.008642 -173.19567 66.190688 -74.643817 86.276383 -44.563801 -64.195147 -31.544803 78.030619 38.689342 -42.41267 130.535229 -22.437614 -81.676859 19.170572 24.114561 -13.380841 175.153036 -17.378838 -115.295206 0.571049 1.648356 -0.322148 8.953184 23.071118 -4.879754 72.757246 -72.143382 89.772159 74.493313 72.905748 -92.321179 163.032041 73.432858 150.721676 -2.44517 0.490653 3.486969 -0.0 -0.0 -0.0 -0.0 -2.27635 -180.0 -3.340447 -2.663598 -150.50614 19.211722 -16.131673 -35.390641 -0.0 -0.0 -0.0 -0.0 -2.27635 -180.0 3.340447 -2.663598 150.50614 -19.211722 -16.131673 35.390641
-168.412 61.2464 131.377 -0.0 0.0 0.0 -0.0 -0.0 -0.0 0.0 0.0 -0.0 4.106366 0.032589 23.528886 -3.778939 1.608313 -23.476994 0.0 -0.0 -0.0 0.0 -0.0 -0.0 -157.065798 -15.190407 164.174218 21.737828 -15.291798 17.729808 -3.263109 -37.969775 -36.153816 159.436829 -41.164392 137.439712 -175.19822 -12.846093 89.807639 31.08209 -67.174781 24.434588 0.184726 -0.300416 -0.104009 -72.02803 47.431069 46.406431 -160.09819 -4.901163 142.968881 -160.68304 -6.721546 143.332779 -145.099691 -1.522044 -178.64987 21.585377 13.342495 -7.132624 -139.224096 -4.39683 -136.390672 4.986418 -0.256285 -1.16612 158.098523 -25.424312 -166.073828 162.130713 -10.964204 -159.123331 -86.739757 -75.647245 -78.765779 25.97019 56.263445 -11.893611 -174.054717 -22.871225 -88.063103 122.668868 20.049868 -60.800504 12.271906 17.023381 -8.102233 -3.029558 -6.394986 4.531882 0.219913 0.63841 -0.122732 87.955958 64.309588 -76.634888 -0.000474 0.063775 -0.020036 2.85781 26.178301 -4.012664 163.032041 73.432858 150.721676 152.902253 26.363563 142.795967 0.0 -0.0 -0.0 -0.0 0.0 -0.0 0.185714 12.975477 -165.372783 89.57294 -2.819975 -170.683124 0.0 -0.0 -0.0 -0.0 0.0 -0.0 -0.185714 12.975477 165.372783 -36.164721 2.208016 -171.309928
-168.406 61.21450000000001 131.381 -0.0 0.0 0.0 -0.0 -0.0 -0.0 0.0 0.0 -0.0 4.106366 0.032589 23.528886 -3.778939 1.608313 -23.476994 -0.0 -0.0 0.0 -0.0 -0.0 0.0 3.268835 -26.755826 -5.241683 -176.641893 -7.53315 173.375173 -179.08597 0.106544 178.864268 -6.310188 19.726092 0.415439 -175.19822 -12.846093 89.807639 57.763221 -70.18962 44.137869 -132.81837 12.807409 111.109258 -159.105044 -26.094736 124.971653 -4.104459 11.11647 2.538106 0.479003 -1.048154 -0.774818 -145.119465 0.267731 -179.212447 -26.703035 -75.196419 -58.370557 -149.548271 27.153394 -145.54674 -24.384437 -40.169621 -28.015306 -3.268835 -26.755826 5.241683 175.916812 -0.438002 -172.991931 -1.034204 -5.635529 33.305269 -165.364163 -29.90652 -141.304813 176.759443 -14.369368 -89.675369 122.408983 15.888636 -58.735336 57.119104 42.209561 -46.040376 1.198101 8.723816 10.567897 125.644075 49.839986 -115.274123 153.505528 20.732705 -141.334163 74.840941 72.961123 -92.827929 7.146873 -42.433696 25.756075 -32.017443 83.320556 -6.228541 149.639704 14.121542 140.768681 0.0 -0.0 -0.0 -0.0 0.0 -0.0 0.185714 12.975477 -165.372783 89.57294 -2.819975 -170.683124 0.0 -0.0 -0.0 -0.0 0.0 -0.0 -0.185714 12.975477 165.372783 -36.164721 2.208016 -171.309928
-168.396 61.152499999999996 131.382 -0.0 0.0 0.0 -0.0 -0.0 -0.0 0.0 0.0 -0.0 4.106366 0.032589 23.528886 -3.778939 1.608313 -23.476994 0.0 -0.0 -0.0 0.0 -0.0 -0.0 3.268835 -26.755826 -5.241683 -176.404973 -5.170647 173.257165 -66.054537 -74.634 -86.493148 46.639569 -64.946217 33.457614 0.567845 -0.561452 -0.084526 17.528095 -27.951605 -13.296719 -108.427673 34.160977 91.742903 -157.499491 -5.093066 124.984914 -8.41658 20.880424 5.645309 14.216465 -42.777592 -1.628672 -145.119466 0.267753 -179.212454 -21.117161 -74.013639 -52.746751 -156.381711 53.734251 -150.117957 71.270784 82.168595 -32.607539 -3.268835 -26.755826 5.241683 176.404973 -5.170647 -173.257165 115.653214 -73.913733 134.019827 -28.775373 -55.252862 -17.456235 78.030619 38.689342 -42.41267 153.224804 -34.612944 -82.897326 -10.281995 -18.182542 4.585706 150.19792 11.794842 -102.714501 36.036059 51.723116 -29.832321 160.635595 8.60042 -144.049608 0.021291 -1.725169 0.542387 -1.228611 -18.345874 1.826752 143.937873 8.265083 140.720099 7.159864 -23.799768 12.0725 0.0 -0.0 -0.0 -0.0 0.0 -0.0 0.185714 12.975477 -165.372783 89.57294 -2.819975 -170.683124 0.0 -0.0 -0.0 -0.0 0.0 -0.0 -0.185714 12.975477 165.372783 -36.164721 2.208016 -171.309928
-168.39 61.11 131.365 0.0 0.0 0.0 -0.0 -4.771896 -180.0 0.0 -4.771896 180.0 -8.144544 9.765136 -77.762661 11.253376 5.904095 77.877376 -0.0 -0.0 0.0 -0.0 -0.0 0.0 -52.204093 -86.543046 -73.912187 -124.518542 62.792903 125.384587 -8.070175 12.467594 -2.408754 10.356909 -29.103947 3.724345 -170.194353 -7.877322 89.943539 -149.442857 4.645304 76.814322 159.641557 -69.973343 102.396332 26.244936 -6.060714 -0.671297 68.983989 -80.15399 40.578188 -163.873845 -5.289579 140.122074 -68.218374 -72.090519 -85.014264 7.509575 29.694303 11.671547 -152.200278 37.330087 -147.582714 4.882623 2.184121 -2.303983 48.785873 -86.435055 70.448757 87.613686 68.279784 -90.55267 -176.068816 1.351477 -145.419755 -176.810646 2.34167 -145.298735 -83.25393 -50.258079 -33.616048 33.573168 8.396914 6.299798 -34.359047 -55.219832 2.102523 170.689304 -23.174818 -102.804019 36.036059 51.723116 -29.832321 164.532495 -4.674281 -145.927145 68.218374 -72.090519 85.014264 158.66704 -48.234683 -168.936836 146.206697 15.40572 142.730862 22.214711 -39.377124 26.079638 -0.0 -0.0 -0.0 -0.0 0.0 -0.0 -5.504562 5.125243 -69.646537 124.203821 34.134609 -39.80895 -0.0 -0.0 -0.0 -0.0 0.0 -0.0 -7.397073 5.294191 -87.407088 5.455692 11.950524 85.962993
-168.386 61.06389999999999 131.349 0.0 0.0 0.0 -0.0 -0.0 -0.0 -0.0 0.0 -0.0 10.949062 5.266948 73.893887 -8.107979 9.060592 -73.755533 0.0 -0.0 -0.0 0.0 -0.0 -0.0 4.239307 -44.742767 -8.647656 -138.696975 69.975108 137.014693 4.066431 -69.249953 0.560664 -2.859108 9.139045 -0.084877 -78.030619 38.689342 42.41267 -150.780244 -33.360425 83.031598 -138.493513 4.896353 114.8648 -3.026991 38.915906 -1.524171 -8.41658 20.880424 5.645309 -169.701565 -16.7392 145.405725 -70.379629 -72.130165 -87.279981 17.87228 -20.617292 3.814632 -145.173549 12.06758 -141.82295 -7.302893 -23.732672 -12.253103 -3.268835 -26.755826 5.241683 176.286935 -4.008642 -173.19567 66.190688 -74.643817 86.276383 -44.563801 -64.195147 -31.544803 78.030619 38.689342 -42.41267 130.535229 -22.437614 -81.676859 19.170572 24.114561 -13.380841 175.153036 -17.378838 -115.295206 0.571049 1.648356 -0.322148 8.953184 23.071118 -4.879754 72.757246 -72.143382 89.772159 74.493313 72.905748 -92.321179 163.032041 73.432858 150.721676 -2.44517 0.490653 3.486969 -0.0 -0.0 -0.0 -0.0 -2.27635 -180.0 -3.340447 -2.663598 -150.50614 19.211722 -16.131673 -35.390641 -0.0 -0.0 -0.0 -0.0 -2.27635 -180.0 3.340447 -2.663598 150.50614 -19.211722 -16.131673 35.390641
